<svg width="134" height="120" viewBox="0 0 134 120" fill="none" xmlns="http://www.w3.org/2000/svg">
<path id="Vector" d="M132.492 102.364C136.786 109.807 131.396 119.111 122.819 119.111H11.1793C2.58631 119.111 -2.7788 109.793 1.50687 102.364L57.3276 5.57984C61.6238 -1.86669 72.384 -1.8532 76.6725 5.57984L132.492 102.364ZM67 82.3541C61.0899 82.3541 56.2987 87.1453 56.2987 93.0555C56.2987 98.9657 61.0899 103.757 67 103.757C72.9102 103.757 77.7014 98.9657 77.7014 93.0555C77.7014 87.1453 72.9102 82.3541 67 82.3541ZM56.84 43.8882L58.5657 75.5271C58.6465 77.0076 59.8706 78.1666 61.3532 78.1666H72.6469C74.1295 78.1666 75.3536 77.0076 75.4344 75.5271L77.1601 43.8882C77.2473 42.2891 75.9741 40.9444 74.3726 40.9444H59.6273C58.0258 40.9444 56.7528 42.2891 56.84 43.8882Z" fill="#F5BA3E"/>
</svg>
