<svg width="135" height="135" viewBox="0 0 135 135" fill="none" xmlns="http://www.w3.org/2000/svg">
<path id="Vector" d="M135 67.5C135 104.779 104.779 135 67.5 135C30.2207 135 0 104.779 0 67.5C0 30.2207 30.2207 0 67.5 0C104.779 0 135 30.2207 135 67.5ZM59.6923 103.241L109.773 53.1601C111.474 51.4595 111.474 48.7021 109.773 47.0015L103.614 40.8429C101.914 39.1421 99.1564 39.1421 97.4556 40.8429L56.6129 81.6853L37.5444 62.6169C35.8439 60.9163 33.0864 60.9163 31.3856 62.6169L25.227 68.7754C23.5265 70.476 23.5265 73.2334 25.227 74.934L53.5335 103.24C55.2343 104.941 57.9915 104.941 59.6923 103.241Z" fill="#259F00"/>
</svg>
