<svg width="58" height="58" viewBox="0 0 58 58" fill="none" xmlns="http://www.w3.org/2000/svg">
<g id="Close_round_fill">
<path id="Subtract" fill-rule="evenodd" clip-rule="evenodd" d="M50.75 29C50.75 41.0122 41.0122 50.75 29 50.75C16.9878 50.75 7.25 41.0122 7.25 29C7.25 16.9878 16.9878 7.25 29 7.25C41.0122 7.25 50.75 16.9878 50.75 29ZM18.6262 39.3738C18.2357 38.9832 18.2357 38.3501 18.6262 37.9596L27.5858 29L18.6262 20.0404C18.2357 19.6499 18.2357 19.0168 18.6262 18.6262C19.0168 18.2357 19.6499 18.2357 20.0404 18.6262L29 27.5858L37.9596 18.6262C38.3501 18.2357 38.9832 18.2357 39.3738 18.6262C39.7643 19.0168 39.7643 19.6499 39.3738 20.0404L30.4142 29L39.3738 37.9596C39.7643 38.3501 39.7643 38.9832 39.3738 39.3738C38.9832 39.7643 38.3501 39.7643 37.9596 39.3738L29 30.4142L20.0404 39.3738C19.6499 39.7643 19.0168 39.7643 18.6262 39.3738Z" fill="#222222"/>
</g>
</svg>
